<?xml version="1.0" standalone="no"?><!DOCTYPE svg PUBLIC "-//W3C//DTD SVG 1.1//EN" "http://www.w3.org/Graphics/SVG/1.1/DTD/svg11.dtd"><svg t="1593069275865" class="icon" viewBox="0 0 1024 1024" version="1.1" xmlns="http://www.w3.org/2000/svg" p-id="2058" width="32" height="32" xmlns:xlink="http://www.w3.org/1999/xlink"><defs><style type="text/css"></style></defs><path d="M982.4 185.6c-16-19.2-38.4-19.2-51.2-19.2H233.6C214.4 89.6 188.8 67.2 128 67.2H64c-16 0-32 12.8-32 32 0 16 12.8 32 32 32h64c35.2 0 38.4 0 73.6 204.8 6.4 32 12.8 70.4 19.2 112 6.4 32 9.6 60.8 16 89.6 25.6 163.2 38.4 243.2 160 243.2h464c16 0 32-12.8 32-32s-12.8-32-32-32h-464C352 716.8 336 704 320 640h496c57.6 0 76.8-60.8 86.4-86.4 3.2-9.6 9.6-32 19.2-64C944 419.2 976 310.4 988.8 272c3.2-32 9.6-64-6.4-86.4z m-60.8 67.2c-12.8 38.4-44.8 147.2-67.2 217.6-9.6 28.8-16 54.4-19.2 64-12.8 41.6-22.4 41.6-25.6 41.6H304c-3.2-16-6.4-32-9.6-51.2-3.2-25.6-9.6-57.6-16-89.6-6.4-41.6-12.8-80-19.2-112-6.4-35.2-12.8-67.2-16-92.8H928c0 3.2-3.2 9.6-6.4 22.4zM342.4 899.2a60.8 60.8 0 1 0 121.6 0 60.8 60.8 0 1 0-121.6 0zM688 899.2a60.8 60.8 0 1 0 121.6 0 60.8 60.8 0 1 0-121.6 0z" p-id="2059" fill="#2c2c2c"></path></svg>