<?xml version="1.0" standalone="no"?><!DOCTYPE svg PUBLIC "-//W3C//DTD SVG 1.1//EN" "http://www.w3.org/Graphics/SVG/1.1/DTD/svg11.dtd"><svg t="1593069371753" class="icon" viewBox="0 0 1024 1024" version="1.1" xmlns="http://www.w3.org/2000/svg" p-id="2701" xmlns:xlink="http://www.w3.org/1999/xlink" width="32" height="32"><defs><style type="text/css"></style></defs><path d="M972.8 364.8s-3.2-3.2 0 0c-3.2-6.4-6.4-9.6-9.6-9.6L624 73.6C592 48 550.4 32 512 32c-38.4 0-80 12.8-112 41.6L57.6 358.4c-6.4 6.4-9.6 12.8-6.4 19.2v579.2c0 19.2 16 35.2 35.2 35.2h352V787.2c0-41.6 35.2-76.8 76.8-76.8 41.6 0 76.8 35.2 76.8 76.8V992h355.2c19.2 0 35.2-16 35.2-35.2v-576c-6.4-6.4-6.4-9.6-9.6-16z m-48 576H640V787.2c0-70.4-57.6-128-128-128s-128 57.6-128 128v153.6H99.2V390.4L432 112c22.4-19.2 51.2-28.8 80-28.8s57.6 9.6 80 28.8l336 278.4v550.4z" p-id="2702" fill="#2c2c2c"></path></svg>