<?xml version="1.0" standalone="no"?><!DOCTYPE svg PUBLIC "-//W3C//DTD SVG 1.1//EN" "http://www.w3.org/Graphics/SVG/1.1/DTD/svg11.dtd"><svg t="1593069325357" class="icon" viewBox="0 0 1024 1024" version="1.1" xmlns="http://www.w3.org/2000/svg" p-id="2475" data-spm-anchor-id="a313x.7781069.0.i8" width="32" height="32" xmlns:xlink="http://www.w3.org/1999/xlink"><defs><style type="text/css"></style></defs><path d="M396.8 32H105.6C64 32 32 64 32 105.6v291.2c0 41.6 32 73.6 73.6 73.6h291.2c41.6 0 73.6-32 73.6-73.6V105.6c0-41.6-32-73.6-73.6-73.6zM416 396.8c0 9.6-9.6 19.2-19.2 19.2H105.6c-9.6 0-19.2-9.6-19.2-19.2V105.6c0-9.6 9.6-19.2 19.2-19.2h291.2c9.6 0 19.2 9.6 19.2 19.2v291.2zM918.4 32H627.2c-41.6 0-73.6 32-73.6 73.6v291.2c0 41.6 32 73.6 73.6 73.6h291.2c41.6 0 73.6-32 73.6-73.6V105.6C992 64 960 32 918.4 32z m19.2 364.8c0 9.6-9.6 19.2-19.2 19.2H627.2c-9.6 0-19.2-9.6-19.2-19.2V105.6c0-9.6 9.6-19.2 19.2-19.2h291.2c9.6 0 19.2 9.6 19.2 19.2v291.2zM396.8 553.6H105.6c-41.6 0-73.6 32-73.6 73.6v291.2C32 960 64 992 105.6 992h291.2c41.6 0 73.6-32 73.6-73.6V627.2c0-41.6-32-73.6-73.6-73.6zM416 918.4c0 9.6-9.6 19.2-19.2 19.2H105.6c-9.6 0-19.2-9.6-19.2-19.2V627.2c0-9.6 9.6-19.2 19.2-19.2h291.2c9.6 0 19.2 9.6 19.2 19.2v291.2z m502.4-364.8H627.2c-41.6 0-73.6 32-73.6 73.6v291.2c0 41.6 32 73.6 73.6 73.6h291.2c41.6 0 73.6-32 73.6-73.6V627.2c0-41.6-32-73.6-73.6-73.6z m19.2 364.8c0 9.6-9.6 19.2-19.2 19.2H627.2c-9.6 0-19.2-9.6-19.2-19.2V627.2c0-9.6 9.6-19.2 19.2-19.2h291.2c9.6 0 19.2 9.6 19.2 19.2v291.2z" p-id="2476" fill="#2c2c2c"></path></svg>