<?xml version="1.0" standalone="no"?><!DOCTYPE svg PUBLIC "-//W3C//DTD SVG 1.1//EN" "http://www.w3.org/Graphics/SVG/1.1/DTD/svg11.dtd"><svg t="1593069307108" class="icon" viewBox="0 0 1024 1024" version="1.1" xmlns="http://www.w3.org/2000/svg" p-id="2317" xmlns:xlink="http://www.w3.org/1999/xlink" width="32" height="32"><defs><style type="text/css"></style></defs><path d="M515.2 147.2c115.2 0 208 92.8 208 208s-92.8 208-208 208-208-92.8-208-208 96-208 208-208m0-86.4C352 60.8 220.8 192 220.8 355.2S352 649.6 515.2 649.6s294.4-131.2 294.4-294.4S678.4 60.8 515.2 60.8zM73.6 963.2c-12.8 0-25.6-6.4-35.2-16-16-19.2-12.8-44.8 6.4-60.8 134.4-105.6 294.4-160 467.2-160 169.6 0 326.4 54.4 460.8 156.8 19.2 12.8 22.4 41.6 6.4 60.8-12.8 19.2-41.6 22.4-60.8 6.4C800 860.8 659.2 812.8 508.8 812.8c-150.4 0-294.4 48-412.8 140.8-3.2 6.4-12.8 9.6-22.4 9.6z" p-id="2318" fill="#2c2c2c"></path></svg>